<svg xmlns="http://www.w3.org/2000/svg" width="367.559" height="65.687" viewBox="0 0 367.559 65.687">
  <metadata><?xpacket begin="﻿" id="W5M0MpCehiHzreSzNTczkc9d"?>
<x:xmpmeta xmlns:x="adobe:ns:meta/" x:xmptk="Adobe XMP Core 5.6-c140 79.160451, 2017/05/06-01:08:21        ">
   <rdf:RDF xmlns:rdf="http://www.w3.org/1999/02/22-rdf-syntax-ns#">
      <rdf:Description rdf:about=""/>
   </rdf:RDF>
</x:xmpmeta>
                                                                                                    
                                                                                                    
                                                                                                    
                                                                                                    
                                                                                                    
                                                                                                    
                                                                                                    
                                                                                                    
                                                                                                    
                                                                                                    
                                                                                                    
                                                                                                    
                                                                                                    
                                                                                                    
                                                                                                    
                                                                                                    
                                                                                                    
                                                                                                    
                                                                                                    
                                                                                                    
                           
<?xpacket end="w"?></metadata>
<defs>
    <style>
      .cls-1 {
        fill: #fff;
        fill-rule: evenodd;
      }
    </style>
  </defs>
  <path id="BAR_VR" data-name="BAR VR" class="cls-1" d="M822.61,566.964a16.972,16.972,0,0,0,5.057-12.753,16.7,16.7,0,0,0-3.682-10.644A13.8,13.8,0,0,0,815,538.123a13.722,13.722,0,0,0,8.1-5.052,15.336,15.336,0,0,0,3.29-9.958,15.838,15.838,0,0,0-4.959-11.919q-4.961-4.757-13.7-4.758H775.526v65.433h33.092Q817.552,571.869,822.61,566.964Zm-35.6-33.452V516.541h18.362a9.387,9.387,0,0,1,6.776,2.354,8.178,8.178,0,0,1,2.454,6.18,8.057,8.057,0,0,1-2.454,6.083,9.391,9.391,0,0,1-6.776,2.354H787.015Zm0,28.253V543.616h18.853a10.076,10.076,0,0,1,7.365,2.6,9.471,9.471,0,0,1,0,13.146,10.566,10.566,0,0,1-7.365,2.4H787.015Zm163.538-15.6a18.662,18.662,0,0,0,11-6.033q4.515-4.953,4.517-13.2,0-9.123-5.892-14.813t-15.515-5.69H915.89v65.433h11.489V547.442H938.77L953.3,571.869h13.257Zm-23.174-8.829v-20.8H943.09a11.538,11.538,0,0,1,8.052,2.845,10.65,10.65,0,0,1,0,15.107,11.533,11.533,0,0,1-8.052,2.845H927.379Zm150.041-30.9h-13.06l-19.84,52.975-19.83-52.975h-13.06l25.72,65.433h14.34Zm49.68,39.731a18.662,18.662,0,0,0,11-6.033q4.515-4.953,4.52-13.2,0-9.123-5.89-14.813t-15.52-5.69h-28.77v65.433h11.49V547.442h11.39l14.53,24.427h13.26Zm-23.17-8.829v-20.8h15.71a11.528,11.528,0,0,1,8.05,2.845,10.655,10.655,0,0,1,0,15.107,11.523,11.523,0,0,1-8.05,2.845h-15.71Zm-267.868,34.3h13.06l19.835-52.974,19.835,52.974h13.06L876.125,506.2H861.789Z" transform="translate(-775.531 -506.188)"/>
</svg>
